<svg viewBox="0 0 381 22" fill="none" xmlns="http://www.w3.org/2000/svg" class="word__svg build" data-v-48853149=""><path d="M2 19.62C73.1834 14.777 144.904 12.2339 216.306 8.36156C247.014 6.69619 278.342 3.38891 309.259 2.77143C322.17 2.51357 360.942 2.73234 348.021 2.73234C276.243 2.73234 204.569 1.68857 132.794 3.04507C99.1296 3.68132 65.8663 6.23739 32.3958 7.65791C21.3791 8.12547 54.5086 7.74875 65.5549 7.97065C122.429 9.11315 179.274 10.5269 236.186 11.1371C272.139 11.5226 308.071 11.8798 344.03 11.8798C354.179 11.8798 364.307 12.5835 374.579 12.5835C387.638 12.5835 376.094 12.5835 370.895 12.5835" stroke-linecap="round" stroke-linejoin="round" stroke="#7b7a68"></path></svg>