<svg width="21" height="21" xmlns="http://www.w3.org/2000/svg" data-v-a5608aa8=""><path d="M.05 1.546C.05.717.74.046 1.59.046h17.745c.85 0 1.539.671 1.539 1.5V19.5c0 .829-.69 1.501-1.539 1.501H1.589C.739 21 .05 20.328.05 19.499V1.546zm4.74 5.287c1.096 0 1.779-.728 1.779-1.635-.02-.929-.683-1.635-1.759-1.635-1.076 0-1.779.706-1.779 1.635 0 .907.683 1.635 1.738 1.635h.02zM3.216 17.587h3.145V8.124H3.217v9.463zm4.885 0h3.145v-5.285c0-.282.02-.565.104-.767.227-.565.745-1.15 1.614-1.15 1.138 0 1.593.868 1.593 2.14v5.062h3.145V12.16c0-2.906-1.552-4.259-3.621-4.259-1.697 0-2.442.949-2.855 1.594h.02V8.124H8.102c.042.888 0 9.463 0 9.463z" fill="#fff" fill-rule="evenodd" data-v-a5608aa8=""></path></svg>