<svg width="21" height="18" xmlns="http://www.w3.org/2000/svg" data-v-a5608aa8=""><path d="M6.602 17.148c7.922 0 12.256-6.586 12.256-12.288 0-.186 0-.37-.008-.556A8.788 8.788 0 0 0 21 2.064a8.712 8.712 0 0 1-2.478.682A4.343 4.343 0 0 0 20.42.354a8.554 8.554 0 0 1-2.738 1.044A4.294 4.294 0 0 0 14.54.034a4.318 4.318 0 0 0-4.309 4.32c0 .337.042.666.11.986C6.761 5.163 3.586 3.436 1.46.825c-.369.64-.579 1.382-.579 2.173 0 1.5.764 2.822 1.915 3.597a4.348 4.348 0 0 1-1.949-.54v.06a4.325 4.325 0 0 0 3.453 4.236c-.361.101-.74.152-1.134.152-.277 0-.546-.025-.807-.076a4.309 4.309 0 0 0 4.024 2.998 8.625 8.625 0 0 1-5.35 1.853c-.345 0-.69-.017-1.026-.059a12.229 12.229 0 0 0 6.594 1.93" fill-rule="nonzero" data-v-a5608aa8=""></path></svg>