<svg viewBox="0 0 384 236" fill="none" xmlns="http://www.w3.org/2000/svg" class="word__svg grow" data-v-48853149=""><path d="M346.869 79.669C329.607 63.2733 313.261 43.4283 290.143 35.071C249.396 20.3403 202.083 16.9429 159.42 12.2731C126.28 8.6457 90.8101 6.64131 57.4816 11.5055C40.491 13.9852 21.9835 20.7441 11.5787 34.9943C-20.0965 78.3755 31.161 128.396 64.4668 151.517C98.4793 175.129 134.134 192.038 175.002 199.723C212.32 206.74 251.563 204.395 288.762 197.727C304.709 194.869 319.585 189.672 334.972 184.831C344.903 181.707 355.305 179.121 363.834 172.78C377.741 162.438 384.127 140.072 382.179 123.73C378.139 89.8386 350.475 63.1436 322.92 45.7407C288.454 23.9728 245.739 9.15938 205.323 3.98293C159.574 -1.87655 113.259 5.5391 70.5309 22.4055C56.6691 27.8772 44.818 34.1697 33.916 44.5126C18.8236 58.8311 13.5117 73.0225 13.9583 93.5627C14.6879 127.126 34.7125 158.441 56.7907 182.452C83.5088 211.507 119.905 226.047 157.578 234.419" stroke-linecap="round" stroke-linejoin="round" stroke="#DFADAB" stroke-width="3px"></path></svg>